<svg version="1.2" xmlns="http://www.w3.org/2000/svg" viewBox="0 0 1500 1250" width="1500" height="1250">
	<defs>
		<linearGradient id="g1" x2="1" gradientUnits="userSpaceOnUse" gradientTransform="matrix(1030.938,0,0,260.746,425.057,870.994)">
			<stop offset="0" stop-color="#01deb9"/>
			<stop offset="1" stop-color="#0183ff"/>
		</linearGradient>
		<linearGradient id="g2" x2="1" gradientUnits="userSpaceOnUse" gradientTransform="matrix(719.598,-22.129,21.681,705.037,280.122,498.322)">
			<stop offset="0" stop-color="#01deb9"/>
			<stop offset="1" stop-color="#0183ff"/>
		</linearGradient>
		<linearGradient id="g3" x2="1" gradientUnits="userSpaceOnUse" gradientTransform="matrix(387.64,-28.464,32.969,448.992,756.53,673.603)">
			<stop offset="0" stop-color="#02a4ec"/>
			<stop offset="1" stop-color="#007aff"/>
		</linearGradient>
		<linearGradient id="g4" x2="1" gradientUnits="userSpaceOnUse" gradientTransform="matrix(197.872,-11.969,11.523,190.5,527.948,566.552)">
			<stop offset="0" stop-color="#02c0cf"/>
			<stop offset="1" stop-color="#01a6e6"/>
		</linearGradient>
		<linearGradient id="g5" x2="1" gradientUnits="userSpaceOnUse" gradientTransform="matrix(202.15,-23.142,23.263,203.204,865.56,660.294)">
			<stop offset="0" stop-color="#0198f9"/>
			<stop offset="1" stop-color="#0080ff"/>
		</linearGradient>
	</defs>
	<style>
		.s0 { fill: #024562 } 
		.s1 { fill: url(#g1) } 
		.s2 { fill: url(#g2) } 
		.s3 { fill: url(#g3) } 
		.s4 { fill: url(#g4) } 
		.s5 { fill: url(#g5) } 
		.s6 { fill: #038ffa } 
		.s7 { fill: #02c5cc } 
		.s8 { fill: #a1eff2 } 
		.s9 { fill: #98e0fd } 
	</style>
	<g id="Layer 1">
		<path id="Liz" fill-rule="evenodd" class="s0" d="m51.78 1048.98v-156.89q0-8.64 6.29-14.79 6.45-6.16 15.39-6.16 8.64 0 14.79 6.16 6.15 6.15 6.15 14.79v143.41h68.12q7.47 0 12.89 5.42 5.42 5.42 5.42 12.89 0 8.06-5.42 13.62-5.42 5.57-12.89 5.57h-86.72q-9.82 0-16.99-7.03-7.03-7.03-7.03-16.99zm158.9-143.12q-6.74-6.74-6.74-16.11 0-9.38 6.74-15.97 6.74-6.59 16.11-6.59 9.52 0 16.12 6.59 6.73 6.59 6.73 15.97 0 9.37-6.73 16.11-6.6 6.59-16.12 6.59-9.23 0-16.11-6.59zm-2.78 150v-110.89q0-7.76 5.56-13.18 5.57-5.42 13.92-5.42 7.62 0 13.04 5.57 5.56 5.42 5.56 13.03v110.89q0 7.91-5.56 13.48-5.57 5.42-13.63 5.42-7.91 0-13.47-5.42-5.42-5.57-5.42-13.48zm67.94-2.34q0-6.3 4.1-12.01l62.99-80.13h-50.68q-6.74 0-11.58-4.98-4.83-4.98-4.83-12.16 0-6.45 4.83-11.28 4.84-4.83 11.58-4.83h85.54q7.03 0 12.6 5.42 5.71 5.27 5.71 13.18 0 7.03-3.95 12.01l-63.87 81.01h53.18q6.44 0 11.27 4.83 4.84 4.84 4.84 11.28 0 7.18-4.84 12.16-4.68 4.98-11.27 4.98h-86.72q-7.62 0-13.33-5.57-5.57-5.71-5.57-13.91z"/>
		<path id="Agenda" fill-rule="evenodd" class="s1" d="m425.06 1052.05q0-4.54 1.61-8.2l58.45-150.29q3.8-9.96 12.89-16.12 9.08-6.3 19.77-6.3 1.47-0.14 2.78-0.14 9.97-0.15 19.05 5.42 10.25 6.15 14.5 17.14l58.15 150.29q1.47 4.39 1.47 8.2 0 8.79-6.45 15.82-6.3 6.89-16.26 6.89-6.73 0-12.45-3.81-5.71-3.81-8.2-10.25l-7.91-21.54h-85.69l-8.21 21.54q-2.49 6.44-8.2 10.25-5.71 3.81-12.74 3.81-9.82 0-16.26-6.89-6.3-6.88-6.3-15.82zm94.48-136.52l-31.2 86.13h62.4zm112.13 82.77q0-34.72 17.72-54.2 17.87-19.63 46.15-19.63 26.8 0 44.67 22.26v-1.46q0-7.91 5.57-13.33 5.57-5.57 13.92-5.57 7.91 0 13.33 5.57 5.56 5.42 5.56 13.33v117.77q0 15.97-4.83 28.27-4.69 12.31-12.31 19.78-7.61 7.47-18.16 12.3-10.55 4.84-20.95 6.6-10.4 1.75-21.97 1.75-16.55 0-33.4-4.39-16.84-4.4-22.7-13.48-2.49-3.95-2.49-8.49 0-6.74 4.68-11.28 4.84-4.54 11.28-4.54 4.4 0 8.06 2.05 14.5 8.93 34.57 8.93 7.47 0 14.06-1.76 6.59-1.75 12.6-5.71 6.01-3.95 9.52-11.28 3.66-7.47 3.66-17.72v-14.8q-18.16 22.85-44.67 22.85-28.28 0-46.15-19.33-17.72-19.34-17.72-54.49zm49.36-29.15q-10.1 10.69-10.1 29.15 0 18.45 10.1 29.15 10.11 10.69 26.52 10.69 9.37 0 18.6-4.69 9.23-4.69 14.06-11.72v-46.87q-4.68-7.18-13.91-11.72-9.23-4.69-18.75-4.69-16.41 0-26.52 10.7zm125.64 31.2q0-20.95 9.37-38.24 9.53-17.28 26.81-27.39 17.29-10.25 38.82-10.25 24.32 0 42.04 13.18 17.87 13.04 25.63 35.74 4.25 13.63 4.25 21.98 0 7.03-5.27 12.15-5.13 5.13-12.45 5.13h-89.36q1.91 14.5 12.89 24.17 11.14 9.52 28.86 9.52 14.8 0 28.13-7.18 3.8-1.9 7.47-1.9 6.3 0 11.28 4.54 4.98 4.4 4.98 10.84 0 6.01-6.01 10.99-5.86 4.83-14.94 7.62-9.08 2.63-18.31 4.1-9.08 1.31-16.85 1.31-33.54 0-55.51-20.94-21.83-21.1-21.83-55.37zm39.26-13.48h71.33q-0.29-5.57-2.49-10.84-2.05-5.42-6.15-10.25-3.95-4.98-10.98-7.91-7.04-3.08-15.97-3.08-8.5 0-15.38 2.93-6.74 2.93-10.84 7.76-4.1 4.84-6.45 10.26-2.34 5.42-3.07 11.13zm135.97 68.99v-110.88q0-7.77 5.56-13.19 5.57-5.42 13.92-5.42 7.62 0 13.04 5.57 5.56 5.42 5.56 13.04v2.05q7.91-9.53 21.1-15.97 13.18-6.59 29.59-6.59 23.29 0 35.15 12.3 12.02 12.16 12.02 33.99v85.1q0 7.91-5.57 13.48-5.57 5.42-13.62 5.42-7.91 0-13.48-5.42-5.42-5.57-5.42-13.48v-70.45q0-14.36-7.03-20.66-6.89-6.3-19.78-6.3-10.4 0-19.04 4.98-8.64 4.84-13.92 12.01v80.42q0 7.91-5.56 13.48-5.57 5.42-13.63 5.42-7.91 0-13.47-5.42-5.42-5.57-5.42-13.48zm163.77-55.22q0-35.01 17.87-55.52 18.02-20.65 46.29-20.65 13.04 0 24.61 5.71 11.57 5.71 20.07 16.55v-56.69q0-7.91 5.56-13.33 5.57-5.56 13.92-5.56 7.91 0 13.33 5.56 5.57 5.42 5.57 13.33v165.82q0 7.91-5.57 13.48-5.57 5.42-13.92 5.42-7.91 0-13.47-5.42-5.42-5.57-5.42-13.48v-1.46q-17.73 22.26-44.68 22.26-28.27 0-46.29-20.21-17.87-20.36-17.87-55.81zm39.26 0q0 18.6 10.25 30.32 10.25 11.72 26.37 11.72 9.67 0 18.89-4.54 9.38-4.69 14.07-11.87v-51.41q-4.69-7.18-14.07-11.72-9.22-4.69-18.89-4.69-16.26 0-26.52 11.72-10.1 11.57-10.1 30.47zm136.74 27.98q0-9.82 2.93-17.87 3.07-8.06 8.06-13.33 5.12-5.28 11.71-8.79 6.6-3.66 13.48-5.28 7.03-1.61 14.21-1.61 14.5 0 26.51 4.69 12.16 4.54 19.34 13.04v-19.48q0-10.99-8.79-17.58-8.64-6.74-23-6.74-18.16 0-32.37 9.37-3.52 2.05-6.89 2.05-5.56 0-10.1-4.1-4.4-4.1-4.4-10.54 0-3.67 2.2-7.47 6.01-9.67 24.32-15.09 18.31-5.42 33.83-5.42 13.04 0 23.88 2.78 10.84 2.78 19.92 8.94 9.23 6.15 14.36 17.14 5.13 10.98 5.13 26.07v76.46q0 7.91-5.42 13.48-5.42 5.42-13.19 5.42h-2.93q-1.61 0-3.95-0.59-2.35-0.73-5.42-2.34-2.93-1.61-5.13-5.13-2.05-3.66-2.05-8.64-7.47 8.79-19.63 13.77-12.01 4.83-26.22 4.83-8.94 0-17.72-3.07-8.65-3.08-16.12-8.79-7.47-5.71-12.01-15.09-4.54-9.52-4.54-21.09zm38.38 0.88q0 9.81 7.76 15.52 7.91 5.72 19.48 5.72 9.53 0 17.73-3.23 8.35-3.22 12.89-9.37v-17.87q-4.54-6.15-12.89-9.38-8.2-3.22-17.73-3.22-11.71 0-19.48 5.86-7.76 5.71-7.76 15.97z"/>
	</g>
	<g id="Logo">
		<path class="s2" d="m369.55 141.39c10.28-1.42 54.06-0.34 66.31-0.27 0.26 19.97-2.04 30.05-4.86 49.58-2.98 20.66 22.09 41.03 41.84 41.22q4.41 0.04 8.75-0.79 4.34-0.83 8.42-2.51 4.08-1.68 7.75-4.14 3.67-2.46 6.77-5.61c16.87-16.89 11.97-31.78 9.07-52.17-0.91-6.45-1.01-18.72-0.98-25.64l259.72 0.15c0.41 20.2-3.08 34.9-4.29 54.56-0.4 6.41 6.67 18.15 11.28 22.94q3 3.13 6.56 5.6 3.57 2.46 7.55 4.16 3.99 1.7 8.23 2.57 4.25 0.87 8.58 0.87c11.68-0.08 23.66-5.26 31.5-13.64 17.23-18.41 12.22-29.72 8.63-51.67-0.92-5.61-0.74-19.2-0.73-25.43 42.17-0.36 85.98-6.68 118.37 26.19 32.38 32.86 26.74 75.1 26.71 117.2l-0.19 110.56c-12.08-0.13-24.41 0-36.52 0.01-0.32-15.23 0.72-30.84-0.32-45.94-2.27-33.11-27.34-51.85-58.67-51.82-39.47 0.05-78.56 0.04-117.82 0.03l-233.55-0.08-116.69-0.07c-19.76-0.04-41.46-0.65-61.04 0.8-10.78 0.8-25.21 8.19-32.97 15.92-16.83 16.77-15.5 34.31-15.42 55.65l0.18 32.63 0.04 214.3-0.08 60.61c-0.04 39.29-0.93 64.85 29.22 95.26 29.58 29.85 57.33 27.77 96.5 27.79l64.84 0.01h233.59c10.46 13.68 16.79 26.28 29.84 38.34l-255.19-0.34-70.94 0.04c-45.46-0.01-76.34 0.99-114.31-29.1-60.73-48.15-50.5-111.14-50.45-180.03l0.02-174.8-0.04-154.97c-0.01-26.19-0.66-53 0.9-79.09 1.5-10.16 4.71-20.99 9.44-29.99 15.79-30.09 41.52-45.43 74.45-48.89z"/>
		<path class="s3" d="m1057.11 423.92c3.59-0.1 10.4 1.46 12.24 5.62 9.26 20.88 29.25 44.63 32.8 66.79 0.9 5.6-25.18 13.49-30.75 14.93-13.81 3.56-34.45 13.85-48.62 11.49-10.35-6.41 0.96-25.29 4.62-33.99-79.54-22.04-155.39 7.66-202.92 74.78-9.72 13.72-17.11 29.33-22.37 45.27-3.7 11.07-6.28 22.48-7.72 34.06-1.44 11.58-1.71 23.27-0.83 34.9 0.88 11.64 2.92 23.16 6.09 34.39 3.17 11.23 7.44 22.11 12.77 32.49 5.55 10.97 12.17 21.35 19.76 31.01 7.59 9.66 16.12 18.55 25.47 26.53 9.34 7.97 19.45 15.01 30.18 21 10.73 5.99 22.02 10.9 33.72 14.66 62.79 19.85 131.42 3.55 178.57-42.43 9.89-9.46 17.54-20.97 27.48-29.94 3.55-3.2 9.88-0.99 13.84 0.78l1.1 0.51c2.78 1.69 8.41 4.93 10.58 7.05 9.14 8.96-3.73 24.53-9.11 31.21-15.89 19.73-37.17 37.79-59.09 50.24-50.53 29.22-110.68 36.93-166.96 21.42-14.17-3.93-27.91-9.26-41.02-15.9-13.11-6.64-25.53-14.57-37.08-23.67-11.54-9.1-22.16-19.33-31.68-30.52-9.53-11.2-17.92-23.32-25.05-36.17-7.06-12.48-12.85-25.64-17.28-39.28-4.44-13.64-7.5-27.69-9.13-41.93-1.64-14.25-1.84-28.63-0.61-42.91 1.23-14.29 3.89-28.42 7.94-42.18 4.07-14.1 9.5-27.77 16.21-40.81 6.72-13.05 14.69-25.41 23.81-36.91 9.11-11.5 19.33-22.09 30.5-31.6 11.16-9.52 23.23-17.93 36.03-25.11 54.82-30.24 111.29-33.94 170.66-16.88 4.34-11.11 5.82-22.99 15.85-28.9z"/>
		<path class="s4" d="m567.66 467.28c20.57-1.27 44.26-0.34 64.64-0.31 49.79 0.06 98.01-9.61 93.02 60.39-0.7 9.79 0.61 24.44 0.04 34.69-2.8 35.66 13.07 83.99-36.11 92.95l-78.53 0.13c-18.44 0.04-48.59 2.69-63.91-7.3-27.72-18.09-15.05-63.52-17.25-91.83 0.04-16.5-1.33-32.96-0.05-49.4 1.84-23.74 15.69-36.1 38.15-39.32zm43.35 112.87c-9.62-8.85-17.89-18.56-27.71-27.16-8.85-7.74-19.75 1.63-19.25 11.32 0.26 4.1 11.07 13.41 14.45 16.63 6.7 6.85 23.93 25.83 31.24 28.61 10.92-3.01 25.1-21.24 33.13-29.7 15.19-16.03 32.66-31.06 46.59-48.05 5.36-6.53-6.25-16.5-14.45-17.03q-4.2 4.09-8.36 8.22-4.16 4.13-8.29 8.29-4.13 4.16-8.22 8.36-4.09 4.2-8.14 8.43c-9.97 10.57-20.07 22.45-30.99 32.08z"/>
		<path class="s5" d="m975.08 542.42c12.18 1.12 15.81 5.08 19.66 16.29 11.07 2.84 21.24 7.31 30.2 14.48 28.2 22.58 28.24 53.41 28.21 86.5-0.01 10.17 0.03 21.68 3.18 31.44 4.38 13.65 24.52 32.06 24.37 42.06-0.04 2.74-1.93 5.37-3.79 7.21-4.81 4.74-85.82 2.7-98.41 2.67-32.81 0.07-69.34 1.78-101.56-1.77-17.46-1.92 13.62-38.03 15.65-42.48 14.99-32.88-2.8-70.51 16.41-103.73 12.05-20.85 26.53-30 49.14-36.87 3.75-9.93 6.25-13.87 16.94-15.8z"/>
		<path class="s6" d="m806.28 66.16c5.39-0.21 10.64 0.38 15.64 2.57 4.7 2.06 9.5 6.05 11.26 11.03 4.68 13.32 4.76 110.83-1.18 121.4-3.48 6.2-9.57 9-16.06 11-5.06 0.32-9.8 0.09-14.58-1.76-5.49-2.13-10.43-6.1-12.6-11.72-4.24-10.99-4.46-110.09-0.14-119.12 3.51-7.35 10.25-10.97 17.66-13.4z"/>
		<path class="s7" d="m469.28 66.17c5.83-0.31 11.84 0.62 17.15 3.11 4.81 2.25 7.93 5.47 9.49 10.58 4.1 13.38 5.01 109.79-0.7 120.29-3.6 6.61-9.13 9.8-16.09 12.01-5.62 0.04-11.22-0.09-16.44-2.43-5.22-2.34-10.03-7.42-11.9-12.84-2.92-8.44-2.56-111.08 1.19-118.2 3.58-6.83 10.4-10.02 17.3-12.52z"/>
		<path class="s8" d="m536.43 362.33c15.05 0.16 33.52-1.49 47.97 0.85 7.26 1.17 10.01 6.1 13.46 11.84 0.27 14.09 1.56 33.89-0.87 47.43-1.22 6.75-5.85 10.1-11.47 13.34-66.28 2.37-64.25 4.03-60.77-63.77 4.02-5.4 5.55-6.94 11.68-9.69z"/>
		<path class="s9" d="m818.48 362.35c10.02 0.01 20.19-0.29 30.09-0.18 9.75 0.11 21.73-1.57 26.8 8.66 3.78 7.84 4.66 18.83 3.74 27.62-1.87 17.79 3.43 27.97-13.74 37.05-12.23 1.33-26.96-0.64-39.11 0.66-28.85 3.1-22.06-43.05-20.55-64.12 4.41-5.78 5.81-7.78 12.77-9.69zm-142.67 0.04c15.15 0.05 34.11-1.46 48.71 0.89 6.35 1.02 9.04 4.93 12.22 10.06 0.71 15.6 0.16 35.37 0.18 51.29-4.21 6.31-5.73 7.69-12.5 11.07-11.88 0.71-49.05 3.13-55.67-6-7.89-10.89-4.81-44.48-3.64-58.4 3.27-3.53 6.3-7.26 10.7-8.91z"/>
		<path class="s8" d="m409.67 484.01c20.45 2.41 43.82-8.5 57.38 11.07 0.54 13.05 2.27 43.53-2.04 55.39-1.54 4.25-7.22 6.16-11.24 7.44-12.6 0.28-27.01 0.96-39.52 0.3-9-0.47-12.72-3.57-18.05-10.1-1.5-10.07-0.9-21.85-1.24-32.13-0.43-13.43-1.13-28.15 14.71-31.97zm0.71 141.42l3.24-0.02c66.26-0.35 53.94 1.13 53.78 64.55-4.6 4.88-6.86 7.28-13.31 9.03-13.05-0.14-26.72 0.76-39.65 0.19-9.51-0.42-12.46-2.11-18.22-8.81-1.4-9.7-3.39-48.58 2.01-57.73 2.68-4.53 7.31-6.08 12.15-7.21z"/>
		<path class="s6" d="m1161.65 629.45c11.67-0.25 50.42-4.05 54.6 7.77-0.35 7.47-2.94 9.59-10.15 9.97-10.36 0.07-42.33 1.79-51.82-2.25-6.98-2.98-6.07-14.05 7.37-15.49zm25.52-74.31c2.21 0.57 5.35 1.74 6.84 3.48 8.7 10.14-15.22 20.69-21.15 24.05-8.61 4.88-16.72 9.15-25.04 13.34-4.46-1.03-5.01-1.09-8.07-4.1-0.99-2.83-1.65-3.48-0.4-6.73 3.21-8.3 40.74-27.85 47.82-30.04zm-238.03 203.74c16.9-0.87 37.52-0.2 54.8-0.16-2.11 8.35-2.8 11.1-8.48 17.48-19.09 13.15-41.98 6.54-46.32-17.32zm196.68-75.99c7.37 1.64 41.91 19.92 49 26.11 1.71 1.49 1.71 4.8 1.47 7.09-1.92 3.9-2.86 4.19-6.55 6.84-8.01-2.14-39.37-19.42-47.53-25.61-2.79-2.12-2.78-3.31-2.94-6.07 1.92-4.37 2.98-4.96 6.55-8.36z"/>
	</g>
</svg>