<svg xmlns="http://www.w3.org/2000/svg" width="1500" height="1250" preserveAspectRatio="none" style="display: block;" version="1.1" viewBox="300 250 1500 1250">
    <defs>
        <linearGradient id="f" x1="985.239" x2="1167.33" y1="1306.66" y2="1296.51" gradientUnits="userSpaceOnUse">
            <stop class="stop0" offset="0" stop-color="rgb(2,179,221)" stop-opacity="1" />
            <stop class="stop1" offset="1" stop-color="rgb(1,154,243)" stop-opacity="1" />
        </linearGradient>
        <linearGradient id="e" x1="1732.51" x2="1475.55" y1="1328.48" y2="1347.49" gradientUnits="userSpaceOnUse">
            <stop class="stop0" offset="0" stop-color="rgb(3,92,255)" stop-opacity="1" />
            <stop class="stop1" offset="1" stop-color="rgb(1,128,255)" stop-opacity="1" />
        </linearGradient>
        <linearGradient id="d" x1="1167.56" x2="1369.71" y1="905.294" y2="882.152" gradientUnits="userSpaceOnUse">
            <stop class="stop0" offset="0" stop-color="rgb(1,152,249)" stop-opacity="1" />
            <stop class="stop1" offset="1" stop-color="rgb(0,128,255)" stop-opacity="1" />
        </linearGradient>
        <linearGradient id="c" x1="829.948" x2="1027.82" y1="811.552" y2="799.583" gradientUnits="userSpaceOnUse">
            <stop class="stop0" offset="0" stop-color="rgb(2,192,207)" stop-opacity="1" />
            <stop class="stop1" offset="1" stop-color="rgb(1,166,230)" stop-opacity="1" />
        </linearGradient>
        <linearGradient id="b" x1="1058.53" x2="1446.17" y1="918.603" y2="890.139" gradientUnits="userSpaceOnUse">
            <stop class="stop0" offset="0" stop-color="rgb(2,164,236)" stop-opacity="1" />
            <stop class="stop1" offset="1" stop-color="rgb(0,122,255)" stop-opacity="1" />
        </linearGradient>
        <linearGradient id="a" x1="582.122" x2="1301.72" y1="743.322" y2="721.193" gradientUnits="userSpaceOnUse">
            <stop class="stop0" offset="0" stop-color="rgb(1,222,185)" stop-opacity="1" />
            <stop class="stop1" offset="1" stop-color="rgb(1,131,255)" stop-opacity="1" />
        </linearGradient>
    </defs>
    <path fill="url(#a)" d="M671.55 386.393c10.276-1.42 54.059-.34 66.314-.27.258 19.964-2.047 30.043-4.866 49.576-2.982 20.658 22.094 41.032 41.839 41.216a43.86 43.86 0 0 0 31.694-13.041c16.873-16.897 11.972-31.782 9.074-52.174-.916-6.448-1.011-18.719-.984-25.636l259.719.145c.41 20.201-3.08 34.9-4.29 54.566-.4 6.401 6.67 18.147 11.28 22.939a42.8 42.8 0 0 0 30.92 13.194c11.68-.082 23.66-5.255 31.5-13.635 17.23-18.415 12.22-29.721 8.63-51.677-.92-5.61-.74-19.193-.73-25.427 42.17-.364 85.98-6.676 118.37 26.193 32.38 32.855 26.74 75.095 26.71 117.201l-.19 110.552c-12.08-.13-24.41.006-36.52.016-.32-15.233.72-30.845-.32-45.944-2.27-33.103-27.34-51.849-58.67-51.813-39.47.044-78.56.036-117.82.025l-233.549-.076-116.686-.072c-19.765-.041-41.46-.65-61.05.8-10.78.797-25.2 8.185-32.964 15.918-16.834 16.77-15.502 34.31-15.423 55.649l.187 32.632.04 214.304-.086 60.603c-.035 39.291-.925 64.855 29.221 95.263 29.584 29.85 57.334 27.77 96.497 27.79l64.848.01h233.585c10.46 13.68 16.79 26.28 29.84 38.34l-255.187-.34-70.945.04c-45.462-.01-76.341.99-114.304-29.1-60.738-48.15-50.505-111.136-50.455-180.027l.024-174.798-.044-154.975c-.009-26.187-.661-52.998.901-79.093 1.5-10.158 4.712-20.985 9.439-29.988 15.796-30.087 41.526-45.424 74.451-48.886" />
    <path fill="url(#b)" d="M1359.11 668.917c3.59-.099 10.4 1.462 12.24 5.618 9.26 20.884 29.25 44.63 32.8 66.794.9 5.604-25.18 13.495-30.75 14.93-13.81 3.562-34.45 13.847-48.62 11.493-10.35-6.413.96-25.29 4.62-33.991-79.54-22.045-155.39 7.655-202.92 74.78-9.72 13.717-17.11 29.327-22.37 45.272a175.65 175.65 0 0 0 10.31 135.841 186.24 186.24 0 0 0 109.13 93.196c62.79 19.85 131.42 3.55 178.57-42.43 9.89-9.46 17.54-20.97 27.48-29.94 3.55-3.2 9.88-.99 13.84.78l1.1.51c2.78 1.69 8.41 4.93 10.58 7.05 9.14 8.96-3.73 24.53-9.11 31.21-15.89 19.73-37.17 37.79-59.09 50.24-50.53 29.22-110.68 36.93-166.96 21.42a222.06 222.06 0 0 1-134.83-106.26 214.74 214.74 0 0 1-19.08-166.299 225.9 225.9 0 0 1 106.55-134.43c54.82-30.238 111.29-33.942 170.66-16.877 4.34-11.117 5.82-22.992 15.85-28.907" />
    <path fill="url(#c)" d="M869.661 712.283c20.567-1.272 44.258-.345 64.637-.317 49.787.069 98.012-9.604 93.022 60.39-.7 9.792.61 24.444.04 34.694-2.8 35.665 13.07 83.988-36.11 92.947l-78.527.135c-18.442.038-48.589 2.693-63.912-7.304-27.723-18.086-15.05-63.517-17.252-91.83.044-16.501-1.326-32.954-.05-49.401 1.842-23.742 15.692-36.101 38.152-39.314m43.348 112.863c-9.615-8.845-17.886-18.558-27.707-27.154-8.851-7.747-19.75 1.628-19.248 11.321.261 4.1 11.062 13.406 14.446 16.632 6.698 6.842 23.933 25.821 31.24 28.603 10.921-3.012 25.101-21.234 33.128-29.701 15.196-16.031 32.657-31.061 46.596-48.05 5.358-6.53-6.257-16.498-14.455-17.029a1375 1375 0 0 0-33.013 33.304c-9.963 10.567-20.067 22.446-30.987 32.074" />
    <path fill="rgb(3,143,250)" d="M1361.87 1244.64c53.02-.79 96.67 41.52 97.54 94.55.86 53.03-41.37 96.74-94.4 97.69-53.14.95-96.98-41.4-97.84-94.55-.87-53.14 41.55-96.91 94.7-97.69m4.38 154.95c74.51-8.51 60.82-123.82-7.25-117.28-75.59 12.01-56.97 124.58 7.25 117.28" />
    <path fill="url(#d)" d="M1277.08 787.418c12.18 1.118 15.81 5.082 19.66 16.289 11.07 2.84 21.24 7.308 30.2 14.484 28.2 22.577 28.24 53.413 28.21 86.502-.01 10.169.03 21.674 3.18 31.44 4.38 13.642 24.52 32.059 24.37 42.06-.04 2.735-1.93 5.369-3.79 7.211-4.81 4.731-85.82 2.691-98.41 2.662-32.81.077-69.34 1.78-101.56-1.768-17.46-1.921 13.62-38.031 15.65-42.482 14.99-32.877-2.8-70.506 16.41-103.727 12.05-20.845 26.53-30 49.14-36.87 3.75-9.929 6.25-13.872 16.94-15.801" />
    <path fill="url(#e)" d="M1653.79 1373.33c15.25-38.45 20.93-84.42 38.19-122.13 2.13-4.63 30.38-4.74 35.29-.55 4.21 9.45-6.46 34.73-10.24 46.58l-27.2 88.68c-2.89 9.48-10.45 46.12-21.73 47.24-12.82 1.28-30.4 4.76-34.93-11.14-10.12-35.52-26.46-73.89-34.76-109.63-6.74 22.95-14.42 45.7-21.58 68.53-4.24 13.49-7.74 27.66-12.66 40.87-.97 2.6-2.31 5.05-4.19 7.11-4.65 5.08-10.92 5.25-17.34 5.29-6.64.04-16.78.23-21.41-5.51-4.86-6.01-54.75-170.55-54.13-174.21.51-2.98 3.19-4.65 5.43-6.35 6.52-.13 26.48-1.21 30.56 2.04 6.72 5.36 14.06 36.61 16.58 45.31 7.41 26.05 15.06 52.04 22.93 77.96l24.06-76.72c4.15-13.21 8.32-27.33 13.19-40.27 1.12-2.98 4.56-6.73 7.7-7.52 5.7-1.46 18.58-1.54 23.82 1.47 2.92 1.67 4.46 3.5 5.61 6.45 5.21 13.37 9.48 28.44 13.75 42.16z" />
    <path fill="rgb(1,69,98)" d="M864.631 1243.45c16.624-1.26 36.833 3.5 51.446 11.48 19.31 8.06 34.123 39.96 32.676 60.08-1.255 17.47 3.584 105.7-2.432 115.85-2.941 2.09-6.2 3.27-9.863 3.13-23.809-.86-26.293 3.52-26.651-20.77-21.828 24.79-56.008 30-86.498 19.8-17.376-5.81-26.574-14.77-34.642-31.09-4.122-11.35-5.657-22.84-3.479-34.81a50.42 50.42 0 0 1 21.962-33.55c29.431-19.79 69.406-14.86 101.959-8.75.362-26.54-7.076-44.43-38.068-47.06-19.823-1.69-32.759 6.62-47.036 19.59-7.679-2.39-18.193-6.94-25.216-11.05-5.573-3.27-2.968-11.32 1.02-15.36 17.396-17.61 40.438-26.03 64.822-27.49m12.182 160.02c27.26-9.18 32.569-24.21 32.594-50.7-17.665-2.45-33.957-4.54-51.96-3.44-11.37 1.64-22.16 4.61-29.374 14.58a22.74 22.74 0 0 0-4.014 17.27c4.133 24.31 33.242 26.54 52.754 22.29" />
    <path fill="url(#f)" d="M1036 1175.39c15.55-.84 112.85-1.48 123.23 1.55 6.39 6.17 4.83 15.48 4.58 23.42-.22 6.92-1.02 14.25-9.21 14.62-11.98.53-24.29.27-36.24.24l-76.13-.06c-3.26 2.07-9.55 6.05-9.83 10.06-1.36 19.6-.58 41.23-.61 60.9 15.4-.04 98.12-2.67 106.34 2.19 1.59.93 2.66 3.35 3.13 5.09 1.8 6.79 2.18 23.91-1.54 29.89-5.1 4.04-12.55 2.88-19.22 2.76l-89.14-.17c1.38 32.33.2 65.62.4 98.04.02 2.52-1.38 5.16-2.67 7.24-6.45 5.05-29.886 4.03-37.086-.58-2.977-4.16-2.013-31.61-2.014-38.61l-.001-67.41.035-72.87c.03-38.56-3.32-70.66 45.976-76.3" />
    <path fill="rgb(1,69,98)" d="M619.022 1248.21c4.756-.16 9.574-.15 14.342-.12 35.238.16 70.538-.52 105.761.21 2.939.06 9.999 1.07 12.249 2.92 6.869 5.64 6.892 18.84 3.195 26.27-8.199 13.54-19.163 26.36-28.981 38.94l-64.341 81.97c11.638-.13 91.042-2.48 95.261 3.09 3.873 5.11 3.428 20.31 1.968 26.5-.736 3.12-2.125 3.8-4.72 5.45-42.796 2.36-88.334-.4-131.354.2-14.553.2-16.622-21.52-11.065-30.19 12.171-19 28.361-36.64 41.805-54.85 17.25-21.17 33.442-44.8 51.211-65.19-20.944-.82-42.327.08-63.287-.15-6.309-.07-21.754 1.12-25.856-2.95-3.672-7.75-2.931-17.88-1.689-26.47.391-2.7 3.241-4.27 5.501-5.63m-267.257-72.13c6.879-.76 25.628-1.01 31.307 1.1 7.577 2.81 5.061 37.21 5.052 45.21l-.175 97.39c-.034 13.08-3.972 67.91 9.172 72.53 21.949 7.71 84.267-3.53 104.427 4.3 5.198 5.26 4.78 29.61-.227 36.35-21.539 3.15-49.511-.08-71.807 1.07-12.802.66-27.732-.02-40.191-2.02-27.18-4.35-42.764-28.25-42.304-54.66-.209-42.79-.117-85.63-.157-128.46l-.019-43.5c.002-10.52-2.322-21.56 4.922-29.31" />
    <path fill="rgb(3,143,250)" d="M1203.41 1175.12c10.18-.08 25.79-2.49 32.73 5.67 2.64 10.27 2.67 241.68.38 247.95-.99 2.71-3.4 3.83-5.78 5.08-8.33.26-16.09.72-24.51-.04-10.5-.21-9.96-11.12-10.03-19.15-.59-67.07.15-134.17-.34-201.25-.08-11.58-2.8-31.45 7.55-38.26" />
    <path fill="rgb(1,69,98)" d="M541.874 1248.32c8.146-.21 26.858-2.24 32.181 3.78.965 3.68 1.966 9.19 1.918 14.28-.504 53.72 1.325 108.62-.917 162.13-.092 2.19-3.461 3.95-5.297 4.84-8.143.67-25.481 2.31-32.129-2.28-1.606-5.2-1.577-13.63-1.543-19.19.316-52.69-.701-105.55.459-158.18.048-2.19 3.711-4.37 5.328-5.38" />
    <path fill="rgb(3,143,250)" d="M1108.28 311.162c5.39-.211 10.64.38 15.64 2.566 4.7 2.06 9.5 6.055 11.26 11.036 4.68 13.321 4.76 110.83-1.18 121.397-3.48 6.198-9.57 9.002-16.06 11.003-5.06.32-9.8.091-14.58-1.763-5.49-2.126-10.43-6.102-12.6-11.717-4.24-10.989-4.46-110.092-.14-119.124 3.51-7.347 10.25-10.967 17.66-13.398" />
    <path fill="rgb(2,197,204)" d="M771.281 311.167c5.829-.304 11.837.626 17.15 3.112 4.807 2.248 7.927 5.471 9.492 10.581 4.098 13.383 5.003 109.792-.707 120.286-3.599 6.612-9.122 9.802-16.082 12.016-5.621.042-11.228-.094-16.445-2.433s-10.025-7.424-11.898-12.843c-2.916-8.437-2.556-111.075 1.185-118.2 3.584-6.828 10.404-10.019 17.305-12.519" />
    <path fill="rgb(161,239,242)" d="M838.428 607.328c15.056.163 33.517-1.489 47.974.852 7.257 1.175 10.011 6.101 13.457 11.836.272 14.097 1.563 33.892-.873 47.433-1.213 6.749-5.849 10.104-11.462 13.338-66.281 2.378-64.255 4.03-60.775-63.767 4.025-5.396 5.553-6.936 11.679-9.692" />
    <path fill="rgb(152,224,253)" d="M1120.48 607.349c10.02.011 20.19-.286 30.09-.176 9.75.108 21.73-1.574 26.8 8.658 3.78 7.843 4.66 18.834 3.74 27.618-1.87 17.795 3.43 27.969-13.74 37.047-12.23 1.329-26.96-.637-39.11.668-28.85 3.096-22.06-43.056-20.55-64.122 4.41-5.782 5.81-7.779 12.77-9.693m-142.667.037c15.147.053 34.107-1.459 48.707.889 6.35 1.022 9.04 4.936 12.22 10.067.71 15.602.16 35.363.18 51.285-4.21 6.309-5.73 7.695-12.5 11.075-11.88.707-49.047 3.127-55.667-6.001-7.894-10.887-4.81-44.477-3.643-58.402 3.271-3.53 6.301-7.264 10.703-8.913" />
    <path fill="rgb(161,239,242)" d="M711.669 729.007c20.454 2.412 43.824-8.493 57.382 11.074.543 13.054 2.267 43.532-2.038 55.393-1.542 4.247-7.225 6.156-11.244 7.435-12.603.283-27.005.963-39.517.304-8.999-.473-12.719-3.569-18.053-10.1-1.5-10.069-.903-21.857-1.236-32.136-.435-13.431-1.133-28.142 14.706-31.97m.707 141.426 3.243-.023c66.261-.346 53.943 1.132 53.782 64.548-4.597 4.88-6.856 7.285-13.308 9.034-13.051-.139-26.722.763-39.649.192-9.511-.419-12.464-2.111-18.219-8.809-1.403-9.702-3.399-48.581 2.007-57.73 2.682-4.538 7.305-6.088 12.144-7.212" />
    <path fill="rgb(1,69,98)" d="M548.771 1169.45c12.994-4.14 26.883 3.07 30.967 16.08s-3.195 26.87-16.229 30.89c-12.943 3.99-26.678-3.23-30.733-16.15s3.093-26.7 15.995-30.82" />
    <path fill="rgb(3,143,250)" d="M1463.65 874.452c11.67-.248 50.42-4.047 54.6 7.767-.35 7.475-2.94 9.589-10.15 9.972-10.36.073-42.33 1.785-51.82-2.254-6.98-2.975-6.07-14.046 7.37-15.485m25.52-74.308c2.21.57 5.35 1.732 6.84 3.478 8.7 10.139-15.22 20.693-21.15 24.05-8.61 4.874-16.72 9.148-25.04 13.339-4.46-1.032-5.01-1.089-8.07-4.102-.99-2.824-1.65-3.48-.4-6.733 3.21-8.291 40.74-27.845 47.82-30.032m-238.03 203.736c16.9-.87 37.52-.2 54.8-.16-2.11 8.35-2.8 11.1-8.48 17.48-19.09 13.15-41.98 6.54-46.32-17.32m196.68-75.994c7.37 1.648 41.91 19.928 49 26.11 1.71 1.494 1.71 4.808 1.47 7.093-1.92 3.904-2.86 4.191-6.55 6.843-8.01-2.144-39.37-19.418-47.53-25.613-2.79-2.116-2.78-3.311-2.94-6.072 1.92-4.363 2.98-4.952 6.55-8.361" />
</svg>
